<?xml version='1.0' encoding='iso-8859-1'?>
<svg version="1.1" fill='#fcee0a' xmlns="http://www.w3.org/2000/svg" viewBox="0 0 470 470" xmlns:xlink="http://www.w3.org/1999/xlink" enable-background="new 0 0 470 470">
  <g>
    <path d="m212.5,139.373c-4.143,0-7.5-3.358-7.5-7.5 0-11.422 3.108-17.379 5.851-22.635 2.318-4.442 4.149-7.952 4.149-15.695 0-7.745-1.831-11.255-4.149-15.699-2.743-5.256-5.851-11.214-5.851-22.636s3.108-17.38 5.851-22.637c2.318-4.443 4.149-7.953 4.149-15.698 0-4.142 3.357-7.5 7.5-7.5s7.5,3.358 7.5,7.5c0,11.422-3.108,17.38-5.851,22.637-2.318,4.443-4.149,7.953-4.149,15.698 0,7.745 1.831,11.255 4.149,15.698 2.743,5.257 5.851,11.215 5.851,22.637 0,11.421-3.108,17.378-5.851,22.634-2.318,4.443-4.149,7.952-4.149,15.696 0,4.142-3.357,7.5-7.5,7.5z"/>
    <path d="m272.5,139.373c-4.143,0-7.5-3.358-7.5-7.5 0-11.422 3.108-17.379 5.851-22.635 2.318-4.442 4.149-7.952 4.149-15.695 0-7.745-1.831-11.255-4.149-15.699-2.743-5.256-5.851-11.214-5.851-22.636s3.108-17.38 5.851-22.637c2.318-4.443 4.149-7.953 4.149-15.698 0-4.142 3.357-7.5 7.5-7.5s7.5,3.358 7.5,7.5c0,11.422-3.108,17.38-5.851,22.637-2.318,4.443-4.149,7.953-4.149,15.698 0,7.745 1.831,11.255 4.149,15.698 2.743,5.257 5.851,11.215 5.851,22.637 0,11.421-3.108,17.378-5.851,22.634-2.318,4.443-4.149,7.952-4.149,15.696 0,4.142-3.357,7.5-7.5,7.5z"/>
    <path d="m365,395.627h-235c-20.678,0-37.5-16.822-37.5-37.5v-52.866c-51.058-0.32-92.5-41.955-92.5-93.087 0-19.802 6.161-38.723 17.817-54.718 1.412-1.938 3.665-3.083 6.062-3.083h371.121c4.143,0 7.5,3.358 7.5,7.5v196.254c0,20.678-16.822,37.5-37.5,37.5zm-337.197-226.254c-8.388,12.731-12.803,27.451-12.803,42.801 0,43.058 35.03,78.089 78.088,78.089h6.912c4.143,0 7.5,3.358 7.5,7.5v60.364c0,12.407 10.094,22.5 22.5,22.5h235c12.406,0 22.5-10.093 22.5-22.5v-188.754h-359.697zm72.197,105.89h-6.912c-34.787,0-63.088-28.302-63.088-63.089 0-7.968 1.465-15.723 4.354-23.052 1.13-2.866 3.897-4.749 6.978-4.749h58.668c4.143,0 7.5,3.358 7.5,7.5v75.89c0,4.142-3.357,7.5-7.5,7.5zm-53.278-75.89c-1.145,4.137-1.722,8.424-1.722,12.801 0,26.32 21.254,47.77 47.5,48.085v-60.886h-45.778z"/>
    <path d="m355,355.627c-4.143,0-7.5-3.358-7.5-7.5v-116.254c0-4.142 3.357-7.5 7.5-7.5s7.5,3.358 7.5,7.5v116.254c0,4.142-3.357,7.5-7.5,7.5z"/>
    <path d="m355,209.373c-4.143,0-7.5-3.358-7.5-7.5v-40c0-4.142 3.357-7.5 7.5-7.5s7.5,3.358 7.5,7.5v40c0,4.142-3.357,7.5-7.5,7.5z"/>
    <path d="m427.5,460.627h-360c-11.584,0-23.15-8.725-26.332-19.862l-5.88-20.578c-1.138-3.982 1.169-8.134 5.151-9.271 3.979-1.137 8.134,1.167 9.272,5.151l5.879,20.577c1.343,4.701 7.02,8.983 11.909,8.983h360c4.89,0 10.566-4.282 11.91-8.983l5.878-20.577c1.138-3.984 5.29-6.289 9.272-5.151s6.289,5.289 5.151,9.271l-5.879,20.578c-3.181,11.137-14.747,19.862-26.331,19.862z"/>
    <path d="m462.5,425.627h-430c-4.143,0-7.5-3.358-7.5-7.5s3.357-7.5 7.5-7.5h430c4.143,0 7.5,3.358 7.5,7.5s-3.357,7.5-7.5,7.5z"/>
  </g>
</svg>
