<?xml version="1.0" encoding="iso-8859-1"?>
<!-- Generator: Adobe Illustrator 19.0.0, SVG Export Plug-In . SVG Version: 6.00 Build 0)  -->
<svg version="1.1" id="Capa_1" fill="#00f0ff" xmlns="http://www.w3.org/2000/svg" xmlns:xlink="http://www.w3.org/1999/xlink" x="0px" y="0px"
	 viewBox="0 0 490 490" style="enable-background:new 0 0 490 490;" xml:space="preserve">
<path d="M488.659,72.311L490,51.764l-49.146-3.137L437.678,0l-20.765,1.327l3.507,53.716l-15.057,14.898l-2.329-35.663
	l-20.766,1.327l3.507,53.717l-12.885,12.749C333.293,67.331,281.236,46.2,224.275,46.2C100.611,46.2,0,145.742,0,268.098
	S100.611,490,224.275,490c123.663,0,224.264-99.547,224.264-221.902c0-58.606-23.091-111.969-60.731-151.675l13.348-13.208
	l52.859,3.374l1.341-20.547l-34.611-2.209l15.055-14.896L488.659,72.311z M427.732,268.098
	c0,111.007-91.274,201.316-203.457,201.316c-112.193,0-203.468-90.309-203.468-201.316c0-111.002,91.275-201.31,203.468-201.31
	c51.221,0,98.077,18.834,133.882,49.861l-29.422,29.112c-28.221-23.628-64.686-37.9-104.46-37.9
	c-89.303,0-161.955,71.883-161.955,160.237c0,88.359,72.652,160.243,161.955,160.243c89.293,0,161.945-71.883,161.945-160.243
	c0-41.605-16.113-79.553-42.484-108.068l29.356-29.046C406.969,166.955,427.732,215.169,427.732,268.098z M224.101,278.401
	l62.381-61.723c11.786,13.936,18.896,31.868,18.896,51.419c0,44.25-36.381,80.252-81.103,80.252
	c-44.724,0-81.115-36.002-81.115-80.252s36.391-80.247,81.115-80.247c17.473,0,33.659,5.513,46.914,14.849l-61.798,61.146
	L224.101,278.401z M286.07,187.975c-17.155-12.984-38.579-20.711-61.795-20.711c-56.204,0-101.922,45.236-101.922,100.834
	c0,55.604,45.718,100.839,101.922,100.839c56.192,0,101.91-45.235,101.91-100.839c0-25.227-9.413-48.319-24.945-66.021
	l27.774-27.481c22.61,24.773,36.398,57.573,36.398,93.502c0,77.005-63.316,139.656-141.138,139.656
	c-77.834,0-141.148-62.65-141.148-139.656c0-77.004,63.315-139.65,141.148-139.65c34.038,0,65.301,11.985,89.704,31.913
	L286.07,187.975z"/>
<g>
</g>
<g>
</g>
<g>
</g>
<g>
</g>
<g>
</g>
<g>
</g>
<g>
</g>
<g>
</g>
<g>
</g>
<g>
</g>
<g>
</g>
<g>
</g>
<g>
</g>
<g>
</g>
<g>
</g>
</svg>
