<?xml version="1.0" encoding="iso-8859-1"?>
<!-- Generator: Adobe Illustrator 19.0.0, SVG Export Plug-In . SVG Version: 6.00 Build 0)  -->
<svg version="1.1" id="Capa_1"  fill="#00f0ff" xmlns="http://www.w3.org/2000/svg" xmlns:xlink="http://www.w3.org/1999/xlink" x="0px" y="0px"
	 viewBox="0 0 489.9 489.9" style="enable-background:new 0 0 489.9 489.9;" xml:space="preserve">
<g>
	<g>
		<g>
			<path d="M318.9,411.9c17.1-23.7,32.3-53.3,43.9-86.7c12.4,7,26.4,10.9,40.4,10.9c47.8,0,86.7-42,86.7-93.3s-38.9-93.3-86.7-93.3
				c-3.5,0-6.6,0.4-10.1,0.8c0-5.4,0.4-10.9,0.4-16.3H25.7c0,113.9,29.6,215.1,74.7,278.1h218.5V411.9z M392.4,170
				c3.5-0.8,7.4-1.2,10.9-1.2c36.9,0,66.9,33.1,66.9,73.5s-30,73.6-66.9,73.6c-12.4,0-24.1-3.5-34.2-10.5
				C381.5,264.9,389.7,219,392.4,170z"/>
			<polygon points="22.9,484.3 464.7,484.3 487.3,431.4 0,431.4 			"/>
			<path d="M116.7,102.8c5.4,0,9.7-4.3,9.7-9.7V52.6c0-5.4-4.3-9.7-9.7-9.7c-5.4,0-9.7,4.3-9.7,9.7V93
				C106.6,98.1,111.2,102.8,116.7,102.8z"/>
			<path d="M209.6,102.8c5.4,0,9.7-4.3,9.7-9.7V15.3c0-5.4-4.3-9.7-9.7-9.7s-9.7,4.3-9.7,9.7v77.8
				C199.9,98.1,204.2,102.8,209.6,102.8z"/>
			<path d="M302.6,102.8c5.4,0,9.7-4.3,9.7-9.7V52.6c0-5.4-4.3-9.7-9.7-9.7s-9.7,4.3-9.7,9.7V93C292.8,98.1,297.1,102.8,302.6,102.8
				z"/>
		</g>
	</g>
</g>
<g>
</g>
<g>
</g>
<g>
</g>
<g>
</g>
<g>
</g>
<g>
</g>
<g>
</g>
<g>
</g>
<g>
</g>
<g>
</g>
<g>
</g>
<g>
</g>
<g>
</g>
<g>
</g>
<g>
</g>
</svg>
